# xmcd
#
# Track frame offsets:
#	152
#	12115
#	39127
#	52370
#	70240
#	92197
#	110557
#	129517
#	146680
#	167072
#	183560
#
# Disc length: 2876 seconds
#
# Revision: 1
# Processed by: cddbd v1.5.1PL0 Copyright (c) Steve Scherf et al.
# Submitted via: audiograbber 1.81.03
#
DISCID=9b0b3a0b
DTITLE=Betty Davis - Crashin From Passion
DYEAR=1900
DGENRE=Funk
TTITLE0=Quintessence of Hip
TTITLE1=Crashin' From Passion
TTITLE2=Hangin' Out In Hollywood
TTITLE3=You Make Me Feel So Good
TTITLE4=I Need A Whole Lot Of Love
TTITLE5=Tell Me A Few Things
TTITLE6=All I Do Is Think Of You
TTITLE7=No Good At Falling In Love
TTITLE8=You Take Me For Granted
TTITLE9=I've Danced This Dance Before
TTITLE10=She's A Woman
EXTD=
EXTT0=
EXTT1=
EXTT2=
EXTT3=
EXTT4=
EXTT5=
EXTT6=
EXTT7=
EXTT8=
EXTT9=
EXTT10=
PLAYORDER=
